<?xml version="1.0" encoding="utf-8"?>
<!-- Generator: Adobe Illustrator 22.1.0, SVG Export Plug-In . SVG Version: 6.00 Build 0)  -->
<svg version="1.1" id="Calque_1" xmlns="http://www.w3.org/2000/svg" xmlns:xlink="http://www.w3.org/1999/xlink" x="0px" y="0px"
	 width="158px" height="158px" viewBox="0 0 158 158" style="enable-background:new 0 0 158 158;" xml:space="preserve">
<style type="text/css">
	.st0{fill:#262261;}
	.st1{fill:#EE4036;}
</style>
<g id="square">
	<g>
		<path class="st0" d="M144.704,37.075H119.19V15.029c0-7.171-5.833-13.004-13.004-13.004H13.295
			c-7.171,0-13.004,5.833-13.004,13.004v92.892c0,7.171,5.833,13.004,13.004,13.004H38.81v22.047
			c0,7.171,5.833,13.004,13.004,13.004h92.892c7.171,0,13.004-5.833,13.004-13.004V50.079
			C157.707,42.908,151.875,37.075,144.704,37.075z M13.295,112.255c-2.39,0-4.335-1.945-4.335-4.335V15.029
			c0-2.39,1.945-4.335,4.335-4.335h92.892c2.39,0,4.335,1.945,4.335,4.335v22.046H51.813c-7.171,0-13.004,5.833-13.004,13.004
			v62.176H13.295z M110.521,45.744v62.176c0,2.39-1.945,4.335-4.335,4.335H47.479V50.079c0-2.39,1.945-4.335,4.335-4.335
			L110.521,45.744L110.521,45.744z M149.039,142.971c0,2.39-1.945,4.335-4.335,4.335H51.813c-2.39,0-4.335-1.945-4.335-4.335
			v-22.047h58.708c7.171,0,13.004-5.833,13.004-13.004V45.744h25.515c2.39,0,4.335,1.945,4.335,4.335v92.892H149.039z"/>
		<path class="st1" d="M106.186,112.255c2.39,0,4.335-1.945,4.335-4.335V45.743H51.813c-2.39,0-4.335,1.945-4.335,4.335v62.176
			H106.186z"/>
	</g>
</g>
<g id="wide">
</g>
</svg>
